<svg width="22" height="22" viewBox="0 0 22 22" fill="none" xmlns="http://www.w3.org/2000/svg">
<rect width="22" height="22" rx="11" fill="#38972E"/>
<path fill-rule="evenodd" clip-rule="evenodd" d="M13.2457 5.45908C13.6138 5.45908 13.9813 5.51099 14.3307 5.62824C16.4838 6.32824 17.2596 8.69074 16.6115 10.7557C16.244 11.811 15.6432 12.7741 14.8563 13.561C13.7298 14.6518 12.4938 15.6202 11.1632 16.4543L11.0173 16.5424L10.8657 16.4485C9.53043 15.6202 8.28735 14.6518 7.15043 13.5552C6.36876 12.7682 5.76735 11.811 5.39401 10.7557C4.73485 8.69074 5.51068 6.32824 7.6871 5.61599C7.85626 5.55766 8.03068 5.51683 8.20568 5.49408H8.27568C8.4396 5.47016 8.60235 5.45908 8.76568 5.45908H8.82985C9.19735 5.47016 9.55318 5.53433 9.89793 5.65158H9.93235C9.95568 5.66266 9.97318 5.67491 9.98485 5.68599C10.1138 5.72741 10.2357 5.77408 10.3523 5.83824L10.574 5.93741C10.6276 5.96598 10.6877 6.00963 10.7397 6.04735C10.7726 6.07125 10.8022 6.09278 10.8248 6.10658C10.8344 6.11219 10.844 6.11784 10.8538 6.12354C10.9038 6.15273 10.9559 6.18315 10.9998 6.21683C11.6479 5.72158 12.4348 5.45324 13.2457 5.45908ZM14.7973 9.65908C15.0365 9.65266 15.2407 9.46074 15.2582 9.21516V9.14574C15.2757 8.32849 14.7804 7.58824 14.0273 7.30241C13.7882 7.22016 13.5257 7.34908 13.4382 7.59408C13.3565 7.83908 13.4848 8.10741 13.7298 8.19433C14.1038 8.33433 14.354 8.70241 14.354 9.11016V9.12824C14.3429 9.26183 14.3832 9.39074 14.4648 9.48991C14.5465 9.58908 14.669 9.64683 14.7973 9.65908Z" fill="white"/>
</svg>
