<svg width="375" height="414" viewBox="0 0 375 414" fill="none" xmlns="http://www.w3.org/2000/svg">
<mask id="path-1-inside-1_98_683" fill="white">
<path d="M414 207C414 321.323 321.323 414 207 414C92.6771 414 0 321.323 0 207C0 92.6771 92.6771 0 207 0C321.323 0 414 92.6771 414 207ZM64.5591 207C64.5591 285.668 128.332 349.441 207 349.441C285.668 349.441 349.441 285.668 349.441 207C349.441 128.332 285.668 64.5591 207 64.5591C128.332 64.5591 64.5591 128.332 64.5591 207Z"/>
</mask>
<path d="M414 207C414 321.323 321.323 414 207 414C92.6771 414 0 321.323 0 207C0 92.6771 92.6771 0 207 0C321.323 0 414 92.6771 414 207ZM64.5591 207C64.5591 285.668 128.332 349.441 207 349.441C285.668 349.441 349.441 285.668 349.441 207C349.441 128.332 285.668 64.5591 207 64.5591C128.332 64.5591 64.5591 128.332 64.5591 207Z" fill="#38972E" fill-opacity="0.02" stroke="#38972E" stroke-opacity="0.4" stroke-width="2" stroke-dasharray="2 2" mask="url(#path-1-inside-1_98_683)"/>
</svg>
