<svg width="275" height="192" viewBox="0 0 275 192" fill="none" xmlns="http://www.w3.org/2000/svg">
<path d="M40.659 161.151L40.3181 161.023C40.2432 160.995 32.7889 158.144 29.2969 151.68C25.8048 145.216 27.5147 137.432 27.5324 137.354L27.6129 137L27.9536 137.128C28.0284 137.156 35.4827 140.007 38.9748 146.471C42.4669 152.935 40.757 160.719 40.7393 160.796L40.659 161.151ZM29.8561 151.379C32.8084 156.845 38.6991 159.646 40.1916 160.286C40.4754 158.689 41.3653 152.232 38.4156 146.772C35.4663 141.312 29.5732 138.506 28.0801 137.865C27.7962 139.463 26.9065 145.919 29.8561 151.379V151.379Z" fill="#38972E"/>
<path d="M31.9656 149.516C38.2411 153.285 40.658 160.771 40.658 160.771C40.658 160.771 32.9003 162.146 26.6248 158.377C20.3493 154.609 17.9324 147.123 17.9324 147.123C17.9324 147.123 25.6901 145.747 31.9656 149.516Z" fill="#38972E"/>
<path d="M226.751 96.6871C239.379 96.6871 249.616 94.4163 249.616 91.615C249.616 88.8138 239.379 86.543 226.751 86.543C214.122 86.543 203.885 88.8138 203.885 91.615C203.885 94.4163 214.122 96.6871 226.751 96.6871Z" fill="#141010"/>
<path d="M201.69 100.376L177.86 160.603L178.451 160.835L202.28 100.609L201.69 100.376Z" fill="#141010"/>
<path d="M251.182 100.374L250.591 100.606L274.41 160.837L275 160.605L251.182 100.374Z" fill="#141010"/>
<path d="M226.751 100.49H226.115V160.721H226.751V100.49Z" fill="#141010"/>
<path d="M198.311 122.08L198.027 122.647L222.163 134.694L222.447 134.126L198.311 122.08Z" fill="#141010"/>
<path d="M254.555 122.081L230.419 134.127L230.704 134.694L254.839 122.648L254.555 122.081Z" fill="#141010"/>
<path d="M195.469 55.6346C195.469 55.6346 185.942 45.8074 183.401 51.8305C180.861 57.8536 192.929 61.0236 192.929 61.0236L195.469 55.6346Z" fill="#FFB8B8"/>
<path d="M216.112 72.7524L203.726 90.5047L190.705 108.574L186.895 160.88L199.915 162.465C199.915 162.465 198.01 148.2 201.503 139.64C204.996 131.081 204.996 115.548 204.996 115.548L227.544 88.2857L240.248 110.159L253.903 162.465L265.336 161.514C265.336 161.514 261.208 137.421 261.843 134.885C262.478 132.349 255.174 111.11 255.174 111.11L249.457 69.5824C249.457 69.5824 223.416 65.7783 216.112 72.7524Z" fill="#2F2E41"/>
<path d="M221.504 25.8994C226.544 25.8994 230.63 21.8208 230.63 16.7895C230.63 11.7583 226.544 7.67969 221.504 7.67969C216.463 7.67969 212.377 11.7583 212.377 16.7895C212.377 21.8208 216.463 25.8994 221.504 25.8994Z" fill="#FFB8B8"/>
<path d="M227.544 19.8125L234.214 26.7866L236.119 37.5648L219.287 40.4178L220.558 30.5907C220.558 30.5907 220.24 25.8356 218.97 24.8846C217.7 23.9336 227.544 19.8125 227.544 19.8125Z" fill="#FFB8B8"/>
<path d="M218.97 31.8592L220.517 30.1157L225.639 34.7122L234.214 26.7871L247.234 70.5338C247.234 70.5338 238.977 67.6808 231.038 71.4848C223.098 75.2889 212.618 74.3379 212.618 74.3379L212.936 38.8333L218.97 31.8592Z" fill="#575A89"/>
<path d="M209.76 38.8333L220.401 29.1162C220.401 29.1162 224.051 34.3952 222.463 44.5394C220.875 54.6835 219.605 74.6548 213.889 80.0439C208.172 85.433 205.949 87.335 205.949 87.335L211.666 64.5107C211.666 64.5107 207.22 41.3693 209.76 38.8333Z" fill="#F2C94C"/>
<path d="M231.168 23.6017C231.168 23.6017 250.093 21.7149 250.41 23.9339C250.728 26.1529 248.505 51.5133 248.505 51.5133C248.505 51.5133 268.194 77.8248 259.937 82.8968C256.087 85.2621 252.76 80.0674 248.028 73.5452C242.614 66.0812 235.992 56.7151 235.484 52.1474C234.531 43.5882 231.168 23.6017 231.168 23.6017Z" fill="#F2C94C"/>
<path d="M210.713 47.709L209.125 60.0722L195.151 54.0491L190.705 63.2422L213.571 71.8014C213.571 71.8014 217.699 49.928 210.713 47.709Z" fill="#F2C94C"/>
<path d="M188.165 159.295L178.955 174.194C178.955 174.194 161.488 183.704 167.522 186.24C173.556 188.776 188.165 183.387 189.753 180.217C191.341 177.047 191.976 176.413 192.611 177.047C193.246 177.681 201.186 175.145 201.503 174.194C201.821 173.243 201.503 162.465 198.645 161.197C195.787 159.929 188.165 159.295 188.165 159.295Z" fill="#2F2E41"/>
<path d="M254.221 160.88L256.126 172.609L258.349 180.851C258.349 180.851 259.937 192.898 267.559 191.947C271.37 191.471 272.72 188.777 273.117 186.201C273.472 183.751 273.025 181.252 271.844 179.075L267.559 171.024L263.748 160.246L254.221 160.88Z" fill="#2F2E41"/>
<path d="M212.385 18.4568C212.385 18.4568 211.145 17.12 211.271 15.4465C211.353 14.4945 211.292 13.5356 211.09 12.6017C211.09 12.6017 211.478 9.86255 212.051 8.27484C212.624 6.68714 212.141 6.13461 214.605 5.26781C217.068 4.40101 215.5 1.2665 222.763 3.76491C223.04 4.04337 223.392 4.23389 223.777 4.31245C224.162 4.39101 224.561 4.35407 224.925 4.20631C226.266 3.71607 227.074 5.55507 227.074 5.55507C227.074 5.55507 227.91 4.87003 228.38 5.58224C228.849 6.29445 231.119 4.67117 231.952 9.85251C232.784 15.0339 229.926 19.6544 229.926 19.6544C229.926 19.6544 229.525 11.363 224.808 11.2127C220.091 11.0624 214.756 9.27874 214.094 12.7702C213.748 14.7258 213.175 16.6342 212.385 18.4568V18.4568Z" fill="#2F2E41"/>
<path d="M245.422 66.1211C245.422 66.1211 233.966 73.6201 239.416 77.2404C244.867 80.8608 250.249 69.6226 250.249 69.6226L245.422 66.1211Z" fill="#FFB8B8"/>
<path d="M248.187 23.9343C248.187 23.9343 251.045 22.3493 251.998 25.5194C252.951 28.6894 262.796 53.0988 262.796 53.0988L250.41 72.1191L241.518 65.779L252.315 53.0988L245.011 44.2227L248.187 23.9343Z" fill="#F2C94C"/>
<path d="M188.641 29.4854H188.309V20.3944C188.309 19.7034 188.172 19.0192 187.907 18.3809C187.642 17.7425 187.254 17.1625 186.765 16.6739C186.275 16.1853 185.694 15.7977 185.055 15.5333C184.415 15.2689 183.73 15.1328 183.038 15.1328H163.742C163.05 15.1328 162.365 15.2689 161.725 15.5333C161.086 15.7977 160.505 16.1853 160.015 16.6739C159.526 17.1625 159.137 17.7425 158.872 18.3809C158.608 19.0192 158.471 19.7034 158.471 20.3944V70.2681C158.471 70.959 158.608 71.6432 158.872 72.2816C159.137 72.92 159.526 73.5 160.015 73.9886C160.505 74.4772 161.086 74.8647 161.725 75.1291C162.365 75.3936 163.05 75.5297 163.742 75.5297H183.038C183.73 75.5297 184.415 75.3936 185.055 75.1291C185.694 74.8647 186.275 74.4772 186.765 73.9886C187.254 73.5 187.642 72.92 187.907 72.2816C188.172 71.6432 188.309 70.959 188.309 70.2681V35.9564H188.641V29.4854Z" fill="white"/>
<path d="M183.126 16.627H180.607C180.723 16.9104 180.767 17.218 180.736 17.5225C180.704 17.827 180.599 18.1192 180.427 18.3733C180.256 18.6274 180.025 18.8356 179.755 18.9795C179.484 19.1235 179.182 19.1988 178.875 19.1988H167.821C167.515 19.1988 167.213 19.1235 166.942 18.9795C166.671 18.8356 166.44 18.6274 166.269 18.3733C166.098 18.1192 165.992 17.827 165.961 17.5225C165.93 17.218 165.974 16.9104 166.09 16.627H163.737C162.693 16.627 161.692 17.0409 160.954 17.7778C160.216 18.5147 159.801 19.5141 159.801 20.5563V70.3568C159.801 70.8728 159.903 71.3837 160.101 71.8604C160.298 72.3372 160.588 72.7703 160.954 73.1352C161.32 73.5001 161.753 73.7895 162.231 73.987C162.709 74.1844 163.221 74.2861 163.737 74.2861H183.126C183.643 74.2861 184.154 74.1844 184.632 73.987C185.11 73.7895 185.543 73.5001 185.909 73.1352C186.275 72.7703 186.565 72.3372 186.762 71.8604C186.96 71.3837 187.062 70.8728 187.062 70.3568V20.5563C187.062 19.5141 186.647 18.5147 185.909 17.7778C185.171 17.0409 184.17 16.627 183.126 16.627V16.627Z" fill="#38972E"/>
<path d="M173.37 40.9258L177.512 48.0875L181.655 55.2492H173.37H165.085L169.228 48.0875L173.37 40.9258Z" fill="white"/>
<path d="M173.35 46.1104L175.23 49.3592L177.108 52.608H173.35H169.592L171.471 49.3592L173.35 46.1104Z" fill="#F2C94C"/>
<path d="M173.35 35.5459L175.23 38.7947L177.108 42.0433H173.35H169.592L171.471 38.7947L173.35 35.5459Z" fill="#F2C94C"/>
<path opacity="0.2" d="M92.3877 66.3008L119.713 113.545L147.038 160.788H92.3877H37.7368L65.0622 113.545L92.3877 66.3008Z" fill="#38972E"/>
<path d="M92.2591 100.504L104.655 121.935L117.051 143.367H92.2591H67.4678L79.8634 121.935L92.2591 100.504Z" fill="#F2C94C"/>
<path d="M92.2591 30.8145L104.655 52.2456L117.051 73.677H92.2591H67.4678L79.8634 52.2456L92.2591 30.8145Z" fill="#F2C94C"/>
<path d="M178.161 160.404H0V161.038H178.161V160.404Z" fill="#141010"/>
<path d="M54.9441 38.8634C53.7346 37.4787 52.5927 35.2448 51.924 33.4443C51.2548 35.2448 50.1128 37.4787 48.9033 38.8634L51.6065 37.8875V52.1476H52.2416V37.8875L54.9441 38.8634Z" fill="#38972E"/>
<path d="M142.119 86.2551C140.91 84.8703 139.768 82.6364 139.099 80.8359C138.43 82.6364 137.288 84.8703 136.078 86.2551L138.781 85.2791V99.5392H139.417V85.2791L142.119 86.2551Z" fill="#38972E"/>
<path d="M114.807 5.41911C113.598 4.03438 112.456 1.80045 111.787 0C111.118 1.80045 109.976 4.03438 108.767 5.41911L111.47 4.44314V18.7033H112.105V4.44316L114.807 5.41911Z" fill="#38972E"/>
</svg>
