<svg width="233" height="150" viewBox="0 0 233 150" fill="none" xmlns="http://www.w3.org/2000/svg">
<path d="M3.62598 142.664V124.9C3.62598 122.51 4.37305 120.545 5.86719 119.007C7.4388 117.402 9.48633 116.6 12.0098 116.6C14.2897 116.6 16.2321 117.402 17.8369 119.007C18.2354 119.405 18.5342 119.793 18.7334 120.169C18.988 119.782 19.2979 119.411 19.6631 119.057C21.3343 117.419 23.2656 116.6 25.457 116.6C27.9362 116.6 29.9837 117.402 31.5996 119.007C33.0938 120.49 33.8408 122.454 33.8408 124.9V141.17L30.6865 142.664H30.5205V123.738C30.5205 122.255 30.1221 121.054 29.3252 120.136C28.3402 118.996 27.0508 118.426 25.457 118.426C23.8633 118.426 22.5739 118.996 21.5889 120.136C20.792 121.054 20.3936 122.255 20.3936 123.738V141.17L17.2393 142.664H17.0732V123.738C17.0732 122.255 16.6748 121.054 15.8779 120.136C14.8929 118.996 13.6035 118.426 12.0098 118.426C10.416 118.426 9.12663 118.996 8.1416 120.136C7.34473 121.054 6.94629 122.255 6.94629 123.738V141.17L3.79199 142.664H3.62598ZM43.8018 135.193C43.8018 136.676 44.2002 137.877 44.9971 138.796C45.9821 139.936 47.2715 140.506 48.8652 140.506C50.459 140.506 51.7484 139.936 52.7334 138.796C53.5303 137.877 53.9287 136.676 53.9287 135.193V123.738C53.9287 122.255 53.5303 121.054 52.7334 120.136C51.7484 118.996 50.459 118.426 48.8652 118.426C47.2715 118.426 45.9821 118.996 44.9971 120.136C44.2002 121.054 43.8018 122.255 43.8018 123.738V135.193ZM40.4814 134.031V124.9C40.4814 122.499 41.2285 120.534 42.7227 119.007C44.2943 117.402 46.3418 116.6 48.8652 116.6C51.3887 116.6 53.4362 117.402 55.0078 119.007C56.502 120.523 57.249 122.488 57.249 124.9V134.031C57.249 136.433 56.502 138.397 55.0078 139.925C53.4362 141.53 51.3887 142.332 48.8652 142.332C46.3418 142.332 44.2943 141.53 42.7227 139.925C41.2285 138.397 40.4814 136.433 40.4814 134.031ZM67.21 140.174H71.9414C73.6126 140.174 74.9408 139.648 75.9258 138.597C76.6452 137.833 77.0049 136.438 77.0049 134.413C77.0049 132.775 76.623 131.502 75.8594 130.595C75.0072 129.576 73.7012 129.067 71.9414 129.067H67.21V140.174ZM67.21 127.241H71.9414C73.0482 127.241 73.9391 126.882 74.6143 126.162C75.2119 125.52 75.5107 124.48 75.5107 123.041C75.5107 121.381 75.151 120.235 74.4316 119.604C73.7897 119.04 72.9596 118.758 71.9414 118.758H67.21V127.241ZM63.8896 142V117.762L65.6494 116.932H71.9414C73.8118 116.932 75.3669 117.441 76.6064 118.459C78.0785 119.654 78.8145 121.187 78.8145 123.058C78.8145 124.961 77.9733 126.544 76.291 127.806C76.8333 128.038 77.3701 128.387 77.9014 128.852C79.5173 130.324 80.3252 132.15 80.3252 134.33C80.3252 136.521 79.6169 138.32 78.2002 139.726C76.6839 141.242 74.5977 142 71.9414 142H63.8896ZM86.6338 142.664V117.762L89.7881 116.268H89.9541V141.17L86.7998 142.664H86.6338ZM96.5947 142V117.762L99.749 116.268H99.915V140.174H111.287V140.34L110.507 142H96.5947ZM112.698 142V117.762L114.458 116.932H124.983V117.098L124.203 118.758H116.019V128.553H124.983V128.719L124.203 130.379H116.019V140.174H127.756V140.34L126.976 142H112.698ZM144.54 134.363L147.694 132.869H147.86V135.393C147.86 136.743 148.259 137.877 149.056 138.796C150.041 139.936 151.33 140.506 152.924 140.506C154.507 140.506 155.796 139.936 156.792 138.796C157.578 137.899 157.971 136.367 157.971 134.197C157.971 132.493 157.65 131.264 157.008 130.512C156.122 129.471 154.761 128.951 152.924 128.951C150.777 128.951 149.034 128.354 147.694 127.158C146.588 126.162 146.034 124.757 146.034 122.941C146.034 120.894 146.72 119.311 148.093 118.193C149.399 117.131 151.009 116.6 152.924 116.6C154.839 116.6 156.449 117.131 157.755 118.193C159.127 119.311 159.813 120.844 159.813 122.792L156.659 124.286H156.493V122.161C156.493 120.899 156.133 119.959 155.414 119.339C154.717 118.73 153.887 118.426 152.924 118.426C151.85 118.426 150.987 118.763 150.334 119.438C149.681 120.114 149.354 121.287 149.354 122.958C149.354 124.441 149.604 125.459 150.102 126.013C150.766 126.754 151.706 127.125 152.924 127.125C155.713 127.125 157.788 127.75 159.149 129.001C160.577 130.318 161.291 132.039 161.291 134.164C161.291 136.422 160.549 138.342 159.066 139.925C157.55 141.53 155.503 142.332 152.924 142.332C150.345 142.332 148.298 141.53 146.781 139.925C145.287 138.342 144.54 136.488 144.54 134.363ZM167.284 142.664V117.762L170.438 116.268H170.604V128.553H180.399V117.762L183.554 116.268H183.72V141.17L180.565 142.664H180.399V130.379H170.604V141.17L167.45 142.664H167.284ZM193.681 135.193C193.681 136.676 194.079 137.877 194.876 138.796C195.861 139.936 197.15 140.506 198.744 140.506C200.338 140.506 201.627 139.936 202.612 138.796C203.409 137.877 203.808 136.676 203.808 135.193V123.738C203.808 122.255 203.409 121.054 202.612 120.136C201.627 118.996 200.338 118.426 198.744 118.426C197.15 118.426 195.861 118.996 194.876 120.136C194.079 121.054 193.681 122.255 193.681 123.738V135.193ZM190.36 134.031V124.9C190.36 122.499 191.107 120.534 192.602 119.007C194.173 117.402 196.221 116.6 198.744 116.6C201.268 116.6 203.315 117.402 204.887 119.007C206.381 120.523 207.128 122.488 207.128 124.9V134.031C207.128 136.433 206.381 138.397 204.887 139.925C203.315 141.53 201.268 142.332 198.744 142.332C196.221 142.332 194.173 141.53 192.602 139.925C191.107 138.397 190.36 136.433 190.36 134.031ZM217.089 131.707H221.82C223.27 131.707 224.56 131.137 225.688 129.997C226.485 129.189 226.884 127.601 226.884 125.232C226.884 122.975 226.485 121.386 225.688 120.468C224.703 119.328 223.414 118.758 221.82 118.758H217.089V131.707ZM213.769 142.664V117.762L215.528 116.932H221.82C224.344 116.932 226.391 117.734 227.963 119.339C229.457 120.866 230.204 122.831 230.204 125.232C230.204 127.645 229.457 129.61 227.963 131.126C226.38 132.731 224.333 133.533 221.82 133.533H217.089V141.17L213.935 142.664H213.769Z" fill="black"/>
<g clip-path="url(#clip0_108_984)">
<path d="M82.8151 0.015625H156.626C158.242 0.015625 159.44 1.51692 159.086 3.09643L148.683 49.4287C148.508 50.2096 148.072 50.9074 147.448 51.4075C146.825 51.9075 146.05 52.18 145.251 52.1801H71.8187C70.0154 52.1801 68.6764 50.5071 69.0683 48.7429L79.2657 2.86704C79.4455 2.05819 79.8952 1.33493 80.5405 0.81656C81.1858 0.298192 81.9881 0.0156805 82.8151 0.015625Z" fill="#0481A3"/>
<path d="M115.142 12.6309H170.041C171.295 12.6309 172.226 13.7955 171.952 15.0211L162.728 56.3515C162.572 57.0491 162.183 57.6726 161.627 58.1195C161.07 58.5663 160.378 58.8098 159.664 58.8099H104.599C103.465 58.8099 102.623 57.7569 102.872 56.6483L112.212 14.9812C112.361 14.3142 112.733 13.718 113.265 13.2908C113.798 12.8636 114.46 12.6309 115.142 12.6309" fill="#14BEF0"/>
<path d="M115.142 12.6309C114.46 12.6309 113.798 12.8636 113.266 13.2908C112.733 13.718 112.361 14.3142 112.212 14.9812L103.874 52.1798H145.251C146.049 52.1799 146.824 51.9076 147.448 51.4076C148.072 50.9076 148.507 50.2097 148.683 49.4288L156.945 12.6313H115.142V12.6309Z" fill="#73D8F4"/>
<path d="M97.2091 26.4199H122.337C123.695 26.4199 124.7 27.6858 124.395 29.0121L113.86 74.7368C113.711 75.38 113.35 75.954 112.835 76.365C112.319 76.776 111.68 76.9998 111.021 77H85.509C84.285 77 83.3769 75.862 83.6469 74.6659L93.9348 29.0424C94.1027 28.2979 94.5183 27.6327 95.1133 27.1562C95.7083 26.6796 96.4474 26.42 97.2091 26.4199Z" fill="#6ABA2F"/>
<path d="M102.872 56.6485C102.624 57.7571 103.465 58.8106 104.599 58.8106H117.53L119.057 52.1797H103.874L102.872 56.6485Z" fill="#B8EC00"/>
<path d="M122.337 26.4199H109.648L103.874 52.1794H119.057L124.395 29.0117C124.701 27.6858 123.695 26.4199 122.337 26.4199Z" fill="white"/>
<path d="M97.2092 26.4199C96.4473 26.4199 95.7082 26.6795 95.1131 27.1561C94.518 27.6326 94.1024 28.2978 93.9345 29.0424L88.7173 52.1794H103.874L109.648 26.4199H97.2092Z" fill="#81D958"/>
</g>
<defs>
<clipPath id="clip0_108_984">
<rect width="103" height="77" fill="white" transform="translate(69)"/>
</clipPath>
</defs>
</svg>
