<svg width="17" height="20" viewBox="0 0 17 20" fill="none" xmlns="http://www.w3.org/2000/svg">
<path d="M5.43879 19.9997C2.46219 19.9825 0 13.9063 0 10.8118C0 5.75695 3.79199 4.65031 5.2534 4.65031C5.91199 4.65031 6.61523 4.90895 7.23551 5.13781C7.66926 5.29746 8.11785 5.46227 8.36734 5.46227C8.51668 5.46227 8.86859 5.32207 9.1793 5.19906C9.84191 4.93527 10.6664 4.60742 11.6266 4.60742C11.6283 4.60742 11.6306 4.60742 11.6323 4.60742C12.3493 4.60742 14.5231 4.76477 15.83 6.72742L16.1361 7.18746L15.6955 7.51992C15.0661 7.99484 13.9177 8.86117 13.9177 10.5772C13.9177 12.6097 15.2183 13.3913 15.8432 13.7673C16.119 13.9332 16.4045 14.1043 16.4045 14.4785C16.4045 14.7229 14.4544 19.9694 11.6226 19.9694C10.9296 19.9694 10.4398 19.7611 10.0078 19.5774C9.57066 19.3914 9.19355 19.2312 8.57043 19.2312C8.25457 19.2312 7.85516 19.3806 7.4323 19.5391C6.85445 19.7548 6.20039 19.9997 5.45824 19.9997H5.43879Z" fill="#141010"/>
<path d="M11.9266 0C12.0003 2.65922 10.0986 4.50406 8.19902 4.38836C7.88601 2.26621 10.0983 0 11.9266 0Z" fill="#141010"/>
</svg>
