<svg width="325" height="208" viewBox="0 0 325 208" fill="none" xmlns="http://www.w3.org/2000/svg">
<g clip-path="url(#clip0_593_2045)">
<rect width="325" height="208" rx="20" fill="#320055"/>
<path d="M332.115 112.982C300.56 142.646 302.302 92.8218 272.638 61.2667C242.974 29.7116 193.138 28.3745 224.693 -1.28918C256.248 -30.9528 305.876 -29.4196 335.539 2.13551C365.203 33.6906 363.67 83.3182 332.115 112.982Z" fill="url(#paint0_linear_593_2045)" fill-opacity="0.13"/>
<path d="M297.564 109.747C275.634 130.363 276.844 95.7357 256.228 73.805C235.612 51.8743 200.976 50.945 222.907 30.3289C244.837 9.7127 279.328 10.7783 299.944 32.709C320.561 54.6397 319.495 89.1307 297.564 109.747Z" fill="url(#paint1_linear_593_2045)" fill-opacity="0.13"/>
<path d="M26.6549 127.894C52.4217 114.032 41.8011 144.764 54.6768 168.698C67.5526 192.633 99.049 200.707 73.2822 214.569C47.5153 228.43 16.1893 220.264 3.31358 196.329C-9.56217 172.395 0.888101 141.755 26.6549 127.894Z" fill="url(#paint2_linear_593_2045)" fill-opacity="0.13"/>
<path d="M281 167C281 176.391 273.39 184 264 184C254.61 184 247 176.389 247 167C247 157.611 254.612 150 264 150C273.388 150 281 157.611 281 167Z" fill="white" fill-opacity="0.3"/>
<path d="M284.001 150C280.19 150 276.681 151.27 273.846 153.39L273.859 153.392C274.417 153.93 275.032 154.31 275.506 154.93L271.971 154.986C271.416 155.545 270.912 156.154 270.436 156.786H276.671C277.145 157.356 277.584 157.851 277.982 158.48H269.305C268.987 159.027 268.693 159.59 268.437 160.174H278.969C279.245 160.758 279.491 161.198 279.7 161.815H267.813C267.624 162.402 267.463 163.002 267.34 163.614H280.198C280.324 164.202 280.421 164.746 280.487 165.3H267.085C267.029 165.859 267 166.427 267 167H280.584C280.584 167.602 280.542 168.159 280.48 168.7H267.085C267.143 169.276 267.228 169.843 267.34 170.4H280.178C280.045 170.951 279.892 171.505 279.7 172.08H267.774C267.954 172.661 268.173 173.226 268.413 173.776H278.969C278.677 174.395 278.345 174.89 277.98 175.469H269.275C269.618 176.064 269.997 176.632 270.409 177.176L276.671 177.27C276.137 177.91 275.452 178.296 274.828 178.857C274.862 178.885 273.83 178.854 271.799 178.822C274.889 182.011 279.209 184 284.001 184C293.39 184 301 176.389 301 167C301 157.611 293.391 150 284.001 150Z" fill="white" fill-opacity="0.4"/>
</g>
<defs>
<linearGradient id="paint0_linear_593_2045" x1="335.539" y1="2.13551" x2="262.711" y2="70.5987" gradientUnits="userSpaceOnUse">
<stop stop-color="white" stop-opacity="0"/>
<stop offset="1" stop-color="white" stop-opacity="0.7"/>
</linearGradient>
<linearGradient id="paint1_linear_593_2045" x1="299.944" y1="32.709" x2="249.329" y2="80.2907" gradientUnits="userSpaceOnUse">
<stop stop-color="white" stop-opacity="0"/>
<stop offset="1" stop-color="white" stop-opacity="0.7"/>
</linearGradient>
<linearGradient id="paint2_linear_593_2045" x1="3.31358" y1="196.329" x2="62.7829" y2="164.338" gradientUnits="userSpaceOnUse">
<stop stop-color="white" stop-opacity="0"/>
<stop offset="1" stop-color="white" stop-opacity="0.7"/>
</linearGradient>
<clipPath id="clip0_593_2045">
<rect width="325" height="208" fill="white"/>
</clipPath>
</defs>
</svg>
